<svg version="1.1" xmlns="http://www.w3.org/2000/svg" viewBox="0 0 459.317792018741 501.9497596254014" width="459.317792018741" height="501.9497596254014">
  <!-- svg-source:excalidraw -->
  
  <defs>
    <style class="style-fonts">
      @font-face {
        font-family: "Virgil";
        src: url("https://excalidraw.com/Virgil.woff2");
      }
      @font-face {
        font-family: "Cascadia";
        src: url("https://excalidraw.com/Cascadia.woff2");
      }
    </style>
  </defs>
  <rect x="0" y="0" width="459.317792018741" height="501.9497596254014" fill="#ffffff"></rect><g stroke-linecap="round" transform="translate(131.8290296781713 10.000000000000057) rotate(0 57.23775701615881 58.827693026293645)"><path d="M9.74 25.69 C9.74 25.69, 9.74 25.69, 9.74 25.69 M9.74 25.69 C9.74 25.69, 9.74 25.69, 9.74 25.69 M4.81 37.27 C13.06 27.68, 23.86 17.41, 32.47 7.31 M4.62 36.31 C10.78 30.55, 17.9 22.04, 32.06 7.19 M0.76 46.45 C13.03 36.83, 21.38 24.84, 36.26 4.55 M1.59 48.53 C11.45 33.88, 23.79 21.23, 38.15 5.62 M2.02 50.49 C12.86 39.36, 25.64 23.95, 44.17 5.23 M1.57 51.95 C18.17 35.21, 33.54 16.6, 44.4 3 M1.24 57.23 C16.28 42.6, 30.82 27.41, 50.21 2.5 M3.18 57.24 C17.17 42.56, 31.44 25.16, 51.3 2.24 M3.4 63.49 C18.25 49.97, 29.47 32.18, 58.65 2.68 M3.57 63.22 C15.49 49.27, 28.14 34.73, 58.56 0.4 M3.86 71.05 C26.98 45.01, 47.26 16.75, 61.94 4.01 M3.97 69.83 C19.29 51.87, 34.45 33.64, 61.54 1.25 M5.04 74.85 C22.35 52.61, 42.43 27.37, 66.04 4.31 M4.89 74.23 C16.71 59.25, 29.77 45.08, 66.13 3.96 M1.75 83.18 C18.51 65.85, 30.04 50.95, 71.09 5.7 M3 82.02 C16.88 66.33, 30.71 49.25, 69.95 3.77 M7.69 86.58 C28.3 57.75, 48.78 34.77, 74.07 4.75 M6.13 84.06 C31.47 54.43, 58.36 25.86, 74.5 5.16 M8.32 88.35 C28.08 60.79, 50.88 36.78, 80.04 6.18 M7.76 87.99 C23.98 70.63, 40.18 52.33, 79.02 7.47 M12.7 91.9 C27.19 71.79, 42.51 53.34, 83.55 6.57 M11.24 91.55 C26.39 74.65, 43.53 55.96, 83.34 7.57 M12.83 95.29 C35.97 65.07, 63.13 38.51, 87.21 8.78 M14.81 94.01 C34.49 71.57, 53.73 47.44, 87.02 10.28 M14.94 96.3 C32.64 79.65, 46.37 63.51, 88.37 12.12 M15.34 97.34 C39.02 71.34, 61.68 44.41, 89.59 11.51 M18.19 99.21 C40.01 76.05, 59.25 49.55, 94.4 14.05 M18.57 101.84 C41.24 75.51, 62.31 50.3, 94.3 13.91 M22.57 103.69 C50.41 72.21, 80.97 38.67, 94.06 20.16 M21.58 105.07 C38.45 83.77, 56.11 63.39, 95.07 17.8 M23.62 107 C43.54 82.23, 66.14 60.64, 100.07 22.01 M24.97 106.98 C42.55 85.08, 60.27 62.51, 99.56 21.06 M27.72 106.19 C51.31 80.61, 75.02 56.07, 102.51 25.43 M28.77 108.12 C49.01 81.72, 70.82 58.52, 102.13 24.29 M33.41 109.29 C57.62 81.44, 80.07 54.46, 106.72 25.13 M31.2 109.73 C51.08 87.07, 70.82 65.49, 104.24 25.46 M37.33 110.44 C51.68 91.3, 68.88 73.85, 106 29.16 M35.23 110.93 C62.08 82.08, 88.37 51.32, 108.72 29.33 M39.58 113.67 C53.78 94.5, 68.42 77.6, 107.58 34.13 M39.39 113.38 C60.84 88.44, 85.22 61.92, 110.23 32.61 M42.98 114.52 C60.44 98.44, 75.42 80.17, 109.23 37.07 M43.64 114.92 C57.8 97.31, 74.87 79.3, 111.42 36.84 M46.46 115.73 C61.08 100.52, 76.72 84.16, 113.24 42.68 M46.19 118.25 C69.37 92.6, 91.41 66.27, 111.47 41.54 M53.6 119.46 C72.08 94.09, 91.06 71.92, 113.14 46.02 M50.7 117.05 C69.26 96.81, 87.73 77.89, 114.26 45.92 M58.07 119.46 C76.65 97.14, 96.48 72.54, 115.6 51.17 M57.14 117.17 C74.91 96.84, 93.25 76.96, 114.91 49.49 M63.49 117.52 C82.88 95.66, 101.29 73.78, 117.11 55.66 M62.23 117.01 C74.04 103.5, 86.52 89.82, 117.89 53.48 M68.85 119.64 C80.72 101.79, 96.65 80.59, 116.67 63.22 M66.39 118.72 C83.47 99.27, 99.26 81.09, 116.33 61.53 M71.7 117.22 C79.5 106.14, 91.56 96.86, 116.96 70.37 M71.47 119.31 C86.73 101.9, 100.58 85.11, 114.63 69.25 M83.52 112.46 C94.37 100.76, 104.86 85.08, 115.8 77.17 M81.6 113.02 C89.6 105.62, 96.48 98.17, 114.53 74.98" stroke="#82c91e" stroke-width="0.5" fill="none"></path><path d="M85.11 7.74 C93.09 11.16, 99.91 18.99, 104.74 26.39 C109.57 33.79, 113.15 43.05, 114.1 52.14 C115.04 61.23, 113.64 72.48, 110.43 80.94 C107.22 89.39, 101.64 97.09, 94.84 102.89 C88.04 108.69, 78.12 113.71, 69.62 115.76 C61.11 117.81, 52.17 117.24, 43.83 115.18 C35.48 113.12, 26.38 109.21, 19.55 103.39 C12.73 97.56, 6.12 89.05, 2.89 80.24 C-0.34 71.43, -0.95 59.6, 0.17 50.54 C1.29 41.47, 4.53 33.1, 9.6 25.85 C14.68 18.6, 22.74 11.36, 30.6 7.06 C38.46 2.76, 47.55 -0.04, 56.75 0.03 C65.96 0.1, 80.9 5.92, 85.83 7.49 C90.76 9.06, 86.96 8.49, 86.32 9.45 M46.79 -0.63 C54.78 -3.23, 65.65 -0.38, 74.35 2.59 C83.04 5.55, 92.45 10.44, 98.96 17.18 C105.48 23.93, 110.88 34.35, 113.41 43.05 C115.95 51.75, 116.29 60.52, 114.17 69.39 C112.04 78.26, 106.12 89.04, 100.67 96.24 C95.21 103.45, 89.21 108.98, 81.44 112.62 C73.67 116.26, 62.95 118.63, 54.04 118.08 C45.13 117.53, 35.84 114.23, 27.96 109.32 C20.09 104.41, 11.64 96.65, 6.76 88.61 C1.89 80.57, -1.05 70.38, -1.26 61.08 C-1.48 51.78, 1.68 40.79, 5.46 32.81 C9.24 24.83, 14.36 18.56, 21.44 13.18 C28.52 7.81, 43.38 2.43, 47.92 0.58 C52.46 -1.27, 48.68 0.95, 48.7 2.09" stroke="#000000" stroke-width="1" fill="none"></path></g><g transform="translate(139.56678669433006 56.32769302629367) rotate(0 49.5 12.5)"><text x="49.5" y="18" font-family="Virgil, Segoe UI Emoji" font-size="20px" fill="#000000" text-anchor="middle" style="white-space: pre;" direction="ltr">Projection</text></g><g stroke-linecap="round" transform="translate(129.24537513261242 192.84277763094326) rotate(0 57.23775701615884 58.827693026293616)"><path d="M17.72 16.73 C17.72 16.73, 17.72 16.73, 17.72 16.73 M17.72 16.73 C17.72 16.73, 17.72 16.73, 17.72 16.73 M3.06 38.63 C9.39 33.58, 14.99 26.62, 30.06 9 M3.87 39.36 C12.31 29.23, 21.82 18, 28.99 9.68 M0.88 47.82 C10.84 37.75, 17.93 28.49, 38.96 4.59 M1.78 45.97 C14.1 31.6, 26.86 19.88, 39.37 3.5 M-0.03 52.26 C14.62 36.29, 29.55 20.44, 45.11 3.09 M2.03 52.56 C12.82 42.76, 23.25 30.21, 43.13 4.12 M3.07 59.49 C19.17 41.2, 33.06 21.41, 48.74 5.97 M1.62 59.83 C20.47 39.51, 37.22 18.4, 48.5 4.38 M-0.97 66.52 C15.04 50.75, 25.91 37.22, 56.77 5.71 M-0.17 67.61 C18.17 46.52, 37.02 25.82, 54.4 4.48 M1.31 69.24 C12.68 56.8, 27.74 42.09, 62.63 5.36 M3.29 70.2 C19.93 49.88, 38.47 29.51, 59.77 4.48 M4.22 73.16 C21.75 58.23, 36.4 37.99, 70.22 -0.52 M3.74 74.08 C23.85 51.77, 41.78 31.52, 68.05 1.25 M6.61 76.83 C29.39 53.05, 48.14 29.49, 73.37 1.15 M6.29 79.29 C27.82 55.96, 45.84 33.76, 72.2 2.45 M8.04 81.48 C23.87 66.4, 38.34 50.16, 76.89 3.3 M9.02 82.09 C32.43 55.19, 57.36 25.52, 76.26 5.78 M8.68 88.01 C34.52 60.29, 59.23 31.97, 80.08 6.21 M9.51 85.86 C35.11 57.13, 61.99 27.43, 78.41 7.51 M10.61 92.68 C29.09 70.6, 48.53 49.25, 84.01 6.71 M11.67 91.76 C28.9 70.62, 44.49 51.53, 82.74 9.59 M13.21 96.75 C39.36 65.76, 64.51 34.52, 84.81 9.84 M13.57 94.39 C41.23 62.03, 70.26 28.74, 86.12 10.31 M15.7 96.7 C33.7 73.78, 54.68 50.57, 88.97 10.52 M15.61 96.95 C42.24 70.33, 65.9 40.19, 90.02 11.99 M20.58 98.44 C45.56 69.43, 70.41 39.2, 94.68 13.3 M18.43 99.38 C39.54 76.68, 59.02 52.68, 93.36 13.57 M22.83 104.45 C39.64 82.52, 57.59 60.93, 97.83 19.5 M21.68 102.56 C46.9 74.06, 71.69 45.68, 97.04 17.83 M23.94 104.99 C50.93 76.89, 77.28 43.57, 97.23 22.38 M24.55 105.38 C39.58 89.02, 53.49 71.96, 98.75 21.51 M29.21 109.81 C48.39 81.3, 74.32 58.34, 102.02 25.39 M28.64 107.5 C49.38 85.02, 72.25 59.47, 100.82 23.48 M31.08 109.77 C55.19 81.54, 77.97 55.04, 102.94 27.53 M31.75 110.93 C59.01 79.26, 88 46.35, 105.08 27.12 M33.76 113.38 C55.82 89.68, 75.63 64.03, 104.98 32.12 M34.13 113.46 C53.67 92.2, 74.37 69.3, 106.06 31.03 M37.16 115.1 C55.08 95.65, 69.32 76.93, 108.71 33.92 M38.88 115.07 C61.26 89.82, 84.41 62.11, 109.76 33.14 M43.68 115.19 C57.07 96.6, 73.35 81.27, 110.89 35.87 M42.3 116.6 C66.82 89.19, 87.96 62.39, 110.91 37.38 M48.04 117.27 C71.61 88.32, 94.4 64.01, 113.16 41.49 M48.23 117.38 C67.99 93.58, 88.56 69.26, 113.1 41.11 M50.65 116.56 C69.79 94.26, 89.22 74.07, 113.29 48.07 M52.97 116.4 C73.87 92.9, 94.98 68.47, 112.61 46.21 M54.96 119.81 C67.76 104.39, 80.91 87.94, 113.91 51.61 M57.15 118.21 C76.36 92.84, 97.76 68.65, 114.63 53.06 M60.69 120.49 C72.77 104.7, 87.83 88.85, 113.71 56.04 M60.5 119.08 C80.1 96.03, 101.5 71.53, 115.06 57.65 M67.81 115.68 C80.73 102.24, 93.71 86.03, 116.9 61.36 M68.36 115.89 C82.55 101.21, 94.72 85.61, 115.41 62.77 M76.04 113.15 C87.2 98.86, 102.79 84.26, 116.36 64.86 M74.69 114.09 C89.45 99.15, 102.6 84.57, 118.57 65.12 M86.54 108.34 C95.01 97.54, 107.03 84.88, 115.89 77.59 M84.32 110.78 C96 97.88, 107.42 83.48, 114.51 76.84" stroke="#82c91e" stroke-width="0.5" fill="none"></path><path d="M41.35 2.88 C48.98 -0.48, 59.47 -0.89, 68.21 0.91 C76.95 2.72, 86.75 7.81, 93.8 13.73 C100.85 19.65, 106.94 28.21, 110.52 36.44 C114.09 44.67, 116.22 54.02, 115.24 63.11 C114.26 72.21, 109.7 83.18, 104.63 91.01 C99.56 98.83, 92.36 105.68, 84.82 110.07 C77.29 114.45, 68.24 117.01, 59.44 117.33 C50.64 117.65, 40.07 116.07, 32 111.99 C23.93 107.9, 16.35 100.17, 11.03 92.83 C5.7 85.49, 1.39 76.95, 0.07 67.95 C-1.25 58.95, 0.22 47.31, 3.12 38.82 C6.02 30.34, 10.05 23.41, 17.48 17.02 C24.9 10.62, 41.82 3.18, 47.67 0.44 C53.53 -2.31, 52.64 -0.5, 52.62 0.55 M74.19 2.38 C82.41 4.07, 91.57 10.03, 97.93 16.47 C104.29 22.92, 109.86 32.15, 112.33 41.08 C114.8 50.02, 114.51 60.86, 112.73 70.09 C110.95 79.32, 107.12 89.57, 101.65 96.48 C96.18 103.38, 87.93 108.05, 79.93 111.52 C71.92 115, 62.45 118.01, 53.62 117.33 C44.79 116.64, 34.48 112.44, 26.94 107.41 C19.4 102.39, 12.8 94.73, 8.37 87.18 C3.93 79.63, 0.76 71.15, 0.32 62.12 C-0.12 53.09, 2.17 41.17, 5.72 32.99 C9.28 24.82, 14.75 18.26, 21.64 13.09 C28.54 7.92, 38.2 3.65, 47.09 1.99 C55.99 0.33, 70.45 2.53, 75.03 3.12 C79.62 3.71, 74.67 4.67, 74.62 5.52" stroke="#000000" stroke-width="1" fill="none"></path></g><g transform="translate(166.98313214877123 239.17047065723693) rotate(0 19.5 12.5)"><text x="19.5" y="18" font-family="Virgil, Segoe UI Emoji" font-size="20px" fill="#000000" text-anchor="middle" style="white-space: pre;" direction="ltr">Join</text></g><g stroke-linecap="round" transform="translate(10 374.29437357281404) rotate(0 57.23775701615881 58.82769302629367)"><path d="M24.71 10.88 C24.71 10.88, 24.71 10.88, 24.71 10.88 M24.71 10.88 C24.71 10.88, 24.71 10.88, 24.71 10.88 M9.06 35.12 C20.12 24.43, 26.33 14.11, 30.98 7.39 M9.03 33.66 C16.52 26.73, 22.21 22.08, 32.98 7.18 M6.52 41.55 C18.36 29.72, 24.81 21.91, 40.92 3.2 M8.29 43.53 C16.5 32.71, 26.35 21.73, 41.84 3.02 M5.92 49.96 C20.82 34.26, 37.42 14.71, 49.81 -1.31 M6.31 50.36 C18.18 36.04, 31.91 21.02, 49.53 -0.09 M4.61 60.26 C12.69 47.72, 26.35 32.3, 52.75 2.06 M3.54 60.64 C17.01 45.68, 30.06 29.31, 55.21 1.97 M3.51 67.17 C13.83 52.98, 26.8 41.66, 60.27 -0.28 M3.92 66.18 C26.87 39.92, 48.45 14.25, 60.16 0.73 M3.06 69.43 C20.99 52.05, 33.34 37.58, 63.49 3.07 M4.83 70.78 C27.17 45.43, 48.09 19.99, 63.88 2.56 M7.33 74.75 C24.09 52.51, 45.46 30.21, 70.45 2.85 M6.17 75.79 C31.12 45.42, 55.26 16.44, 70.38 2.47 M6.48 80.9 C31.7 52.23, 56.08 21.91, 73.13 5.16 M6.75 78.69 C24.11 59.75, 40.11 40.75, 74.15 2.68 M7.79 88.3 C22.45 66.74, 39.58 48.1, 79.08 2.53 M6.34 86.19 C28.13 60.36, 52.16 34.09, 77.83 5.25 M11.19 89.49 C36.16 59.09, 60.42 29.2, 80.51 4.28 M9.13 89.3 C35.25 57.99, 62.3 29.53, 82.2 6.93 M11.92 92.6 C31.33 71.39, 53.29 47.72, 85.97 7.5 M11.36 93.25 C31.23 69.76, 50.28 49.18, 83.83 9.69 M15.26 95.02 C28.97 77.98, 45.44 61.94, 87.96 12.43 M14.07 94.76 C40.16 67.16, 64.35 38.41, 87.74 10.65 M15.72 100.56 C38.27 76.33, 55.25 52.6, 92.05 12.49 M17.19 97.66 C38.95 73, 61.16 48.26, 92.36 13.61 M19.96 102.66 C42.68 76.93, 64.32 52.47, 94.53 15.86 M20.48 101.73 C45.34 71.98, 71.38 42.78, 94.28 15.17 M21.25 105.82 C39.46 86.82, 55.86 66.78, 96.09 18.29 M22.9 104.56 C50.2 72.55, 78.26 41.25, 97.77 19.08 M26.37 108.81 C43.56 86.31, 60 67.96, 99.48 20.64 M25.55 106.36 C55.4 73.58, 83.78 39.46, 101.55 20.3 M30.71 109.31 C50.93 81.1, 74.08 57.39, 103.97 25.99 M29.72 109.08 C58.1 76.87, 86.33 43.33, 103.08 23.66 M31.29 113.41 C56.94 81.33, 85.7 49.12, 104.9 29.87 M31.82 111.49 C59.37 81.9, 86.48 51.1, 105.18 28.61 M36.41 113.22 C50.39 96.81, 65.68 76.32, 105.42 32.42 M36.06 113.3 C61.55 83.58, 86.58 55.39, 107.68 32.88 M38.72 112.93 C62.63 85.91, 88.91 61.52, 107.57 34.39 M39.5 114.74 C56.68 95.47, 72.16 76.64, 109.53 37.1 M42.85 115.57 C58.32 98.64, 72.57 85.43, 109.9 41.97 M44.58 115.85 C59.15 99.12, 74.14 82.83, 110.29 41.04 M50.46 117.64 C68.79 94.09, 90.37 69.99, 112.5 45.1 M48.2 116.68 C64.66 99.74, 79.29 81.04, 112.23 44.55 M54.62 117.37 C73.13 98.32, 91.05 75.52, 116.69 48.54 M53.04 118.05 C67.26 102.19, 82.18 86.44, 115.94 46.1 M58.09 119.31 C79.26 92.54, 100.05 72.12, 114.12 54.68 M59.82 117.65 C75.99 98.89, 92.19 79.51, 116.4 52.2 M65.11 118.15 C77.66 104.69, 87.17 92.24, 115.65 60.1 M64.06 116.44 C85.26 95.16, 106.1 72.59, 115.82 59.37 M71 115.51 C88.1 97.9, 102.87 79.42, 116.41 66.36 M69.65 116.94 C87.7 97.4, 106.18 75.89, 115.72 65.57 M77.87 115.26 C88.78 101.85, 99.5 88.38, 114.29 73.12 M77.5 115.08 C84.25 107.11, 92.22 98.2, 113.32 72.8 M90.92 105.8 C95.59 102.15, 97.64 95.84, 108.18 86.43 M91.85 106.04 C96.35 99.16, 102.7 92.42, 106.79 87.92" stroke="#82c91e" stroke-width="0.5" fill="none"></path><path d="M77.07 2.86 C85.38 5.09, 94.34 13.16, 100.24 20.17 C106.14 27.18, 110.3 36.27, 112.45 44.91 C114.6 53.55, 115.12 63.32, 113.12 72.03 C111.13 80.74, 106.57 90.24, 100.49 97.18 C94.41 104.13, 84.91 110.5, 76.64 113.69 C68.37 116.87, 59.39 117.32, 50.89 116.29 C42.38 115.26, 32.95 112.51, 25.6 107.49 C18.26 102.47, 11.11 94.33, 6.84 86.18 C2.57 78.04, -0.02 67.69, -0.01 58.6 C0 49.52, 2.81 39.6, 6.9 31.68 C10.99 23.76, 17.45 16.32, 24.52 11.09 C31.59 5.86, 39.62 1.25, 49.31 0.28 C58.99 -0.69, 76.12 3.52, 82.64 5.29 C89.15 7.06, 88.79 9.91, 88.39 10.89 M60.54 -0.57 C68.89 -1.06, 79.74 3.33, 87.62 8.09 C95.49 12.86, 103.16 20.17, 107.79 28.01 C112.41 35.85, 115.35 45.96, 115.39 55.15 C115.42 64.34, 112.14 74.62, 108.01 83.13 C103.87 91.64, 97.69 100.43, 90.56 106.2 C83.43 111.97, 73.62 116.12, 65.23 117.74 C56.84 119.37, 48.48 119.16, 40.22 115.94 C31.96 112.73, 22.22 105.14, 15.68 98.43 C9.13 91.73, 3.46 84.38, 0.93 75.7 C-1.59 67.02, -1.68 55.41, 0.51 46.36 C2.7 37.31, 8.22 28.33, 14.08 21.39 C19.94 14.46, 27.85 8.39, 35.65 4.75 C43.45 1.11, 56.6 -0.07, 60.87 -0.46 C65.14 -0.85, 61.03 1.44, 61.3 2.41" stroke="#000000" stroke-width="1" fill="none"></path></g><g transform="translate(43.737757016158696 420.6220665991077) rotate(0 23.5 12.5)"><text x="23.5" y="18" font-family="Virgil, Segoe UI Emoji" font-size="20px" fill="#000000" text-anchor="middle" style="white-space: pre;" direction="ltr">Scan</text></g><g stroke-linecap="round" transform="translate(260.41522106205275 373.89692558199147) rotate(0 57.23775701615881 58.827693026293616)"><path d="M15.42 17.38 C15.42 17.38, 15.42 17.38, 15.42 17.38 M15.42 17.38 C15.42 17.38, 15.42 17.38, 15.42 17.38 M7.15 35.45 C11.53 27.45, 17.07 24.91, 25.01 11.92 M5.01 35.17 C11.24 29.66, 16.46 21.76, 27.91 9.6 M5.28 43.16 C16.98 27.7, 30.29 12.45, 37.59 2.3 M4.16 42.28 C10.43 35.5, 18.27 26.97, 39.08 2.53 M5.11 49.47 C20.25 29.09, 34.01 14.44, 44.5 2.81 M2.56 49.91 C18.56 32.35, 35.15 13.63, 45.12 2.58 M3.38 55.15 C19.35 33.89, 41.41 14.31, 52.01 2.05 M2.91 56.39 C14.1 42.36, 25.62 30.61, 49.95 1.17 M2.59 60.3 C15.42 45.28, 31.06 30.61, 54.75 -0.3 M2.29 61.59 C14.46 47.26, 27.61 32.62, 56.3 1.7 M-0.32 69.06 C14.75 54.91, 26.2 43.23, 62.89 -1.09 M1.4 69.56 C12.9 54.63, 25.81 39.61, 62.36 0.92 M2.55 73 C29.13 48.1, 52.89 19.74, 66.82 -1.02 M2.59 74.91 C20.86 54.71, 38.02 34.09, 67.03 -0.43 M4.26 75.89 C22.13 58.09, 39.58 38, 68.51 1.31 M4.62 77.56 C23.94 56.75, 42.73 35.26, 70.79 3.32 M8.89 83.59 C34.39 53.54, 59.04 21.44, 73.32 5.31 M8.02 81.57 C23.27 61.98, 39.75 44.24, 74.07 4.62 M7.47 84.96 C25.01 67.18, 45.27 47.41, 77.48 7.37 M9.55 86.03 C31.75 60.39, 52.71 35.11, 78.25 6.65 M8.69 90.59 C27.48 70.04, 47.13 45.44, 80.04 9.28 M10.48 90.8 C27.16 71.28, 43.43 51.52, 82.1 7.72 M11.53 92.99 C36.63 65.93, 61.35 39.17, 84.09 9.91 M13.72 92.57 C39.54 62.27, 63.86 33.06, 86.64 9.93 M16.6 96.48 C35.76 72.37, 57.49 49.61, 89.56 9.95 M14.69 95.83 C43.67 63.21, 74.15 29.65, 90.31 11.81 M20.07 99.93 C42.8 71.29, 66.78 41.88, 94.37 15.02 M17.79 99.53 C46.92 66.4, 73.64 36.45, 93.81 12.5 M20.36 103.42 C42.06 80.02, 63.53 55.38, 93.88 17.91 M20.63 102.68 C37.84 81.47, 54.97 62.64, 95.96 15.86 M24.08 102.95 C53.69 70.46, 82.9 40.89, 99.39 20.23 M24.48 103.05 C48.67 79.64, 69.36 52.82, 97.84 19.19 M28.06 105.84 C53.81 75.06, 82.69 48.24, 98.96 21.65 M27.86 105.6 C49.19 83.67, 68.83 61.13, 100.03 22.32 M30.6 107.96 C50.37 87.29, 67.27 68.8, 103.88 25.53 M30.28 109.56 C46.1 90.83, 62.86 72.2, 102.7 26.34 M34.17 112.38 C48.64 93.03, 66.47 75.99, 105.47 27.66 M34.5 112.15 C50.59 92.23, 67.74 74.34, 104.87 30.18 M37.36 114.33 C55.38 96.8, 71.27 75.35, 109.59 30.39 M37.01 113.46 C66.17 81.56, 93.22 49.87, 108.55 31.81 M41.5 115.36 C55.11 97.54, 72.69 79.82, 109.43 35.39 M42.21 115.61 C58.73 95.36, 76.6 75.27, 111.92 34.9 M46.71 116.84 C62.75 102.32, 75.72 85.03, 113.38 40.27 M46.9 116.17 C70.59 88.35, 96.28 59.89, 112.87 40.49 M50.53 118.09 C70.49 95.16, 86.15 78.53, 113.01 47.54 M50.55 117.29 C64.21 100.7, 79.74 83.64, 111.43 45.8 M53.83 119.08 C68.87 102.09, 81.52 85.93, 111.74 49.06 M55.66 118.4 C74.92 94.15, 95.73 71.64, 114 51.77 M59.53 119.13 C72.7 104.09, 83.62 91.81, 113.55 54.72 M60.05 119.8 C78.15 97.88, 95.73 76.69, 114.56 55.62 M65.18 121.07 C81.52 96.1, 103.19 77.76, 114.19 61.89 M63.99 118.87 C82.51 99.65, 99.78 78.88, 115.48 61.31 M73 118.19 C81.16 107.09, 90.02 98.3, 111.27 70.59 M71.7 115.94 C82.57 105.58, 92.53 92.61, 112.04 70.67 M79.2 114.73 C92.48 99.91, 103.96 89.81, 110.74 81.15 M79.27 114.76 C87.33 105.02, 95.9 96.46, 110.55 80.06" stroke="#82c91e" stroke-width="0.5" fill="none"></path><path d="M38.7 2.73 C46.53 -0.85, 58.84 -1.4, 67.69 0.15 C76.54 1.7, 84.75 6.28, 91.8 12.05 C98.84 17.82, 106.14 26.55, 109.96 34.77 C113.77 42.99, 115.11 52.53, 114.68 61.37 C114.26 70.2, 111.81 79.96, 107.41 87.78 C103 95.6, 95.81 103.26, 88.25 108.31 C80.68 113.35, 70.94 117.43, 62.04 118.06 C53.13 118.68, 43 115.95, 34.81 112.05 C26.63 108.16, 18.55 101.78, 12.92 94.69 C7.29 87.61, 2.93 78.42, 1.03 69.56 C-0.87 60.71, -0.85 50.22, 1.52 41.55 C3.9 32.88, 8.33 24.28, 15.28 17.54 C22.23 10.79, 38 3.47, 43.23 1.08 C48.45 -1.31, 46.5 2.14, 46.62 3.19 M50.64 -0.46 C59.01 -2.4, 71.42 -0.79, 79.55 2.92 C87.68 6.63, 93.94 14.64, 99.41 21.81 C104.88 28.98, 110.29 37.28, 112.36 45.94 C114.44 54.59, 114.19 64.83, 111.86 73.76 C109.52 82.7, 104.02 92.84, 98.35 99.55 C92.68 106.27, 86.04 110.9, 77.84 114.05 C69.64 117.19, 58.41 119.71, 49.18 118.44 C39.95 117.17, 29.72 111.82, 22.45 106.41 C15.18 101, 9.56 94.19, 5.58 85.98 C1.59 77.77, -1.79 66.56, -1.48 57.14 C-1.17 47.71, 3.04 37.16, 7.43 29.43 C11.81 21.69, 17.55 15.54, 24.83 10.71 C32.11 5.89, 46.58 2.25, 51.1 0.46 C55.61 -1.33, 51.77 -0.97, 51.93 0" stroke="#000000" stroke-width="1" fill="none"></path></g><g transform="translate(294.1529780782114 420.22461860828514) rotate(0 23.5 12.5)"><text x="23.5" y="18" font-family="Virgil, Segoe UI Emoji" font-size="20px" fill="#000000" text-anchor="middle" style="white-space: pre;" direction="ltr">Scan</text></g><g stroke-linecap="round"><g transform="translate(186.68188646983424 126.86039909398761) rotate(0 0.31052526780558765 33.37590259273966)"><path d="M0.8 0.92 C0.82 11.95, 0.94 55.41, 0.89 66.39 M-0.23 0.36 C-0.43 10.99, 0.03 53.73, -0.01 64.48" stroke="#000000" stroke-width="1" fill="none"></path></g></g><g stroke-linecap="round"><g transform="translate(154.37385635261654 300.1763749355174) rotate(0 -33.15476105103795 39.09039769115452)"><path d="M-0.56 -0.93 C-11.74 12.08, -56.43 64.69, -67.65 77.69 M1.34 1.2 C-9.4 14.42, -54.24 66.33, -65.4 79.11" stroke="#000000" stroke-width="1" fill="none"></path></g></g><g stroke-linecap="round"><g transform="translate(223.01647405266453 296.4493927220793) rotate(0 31.040854236335633 40.80760315007541)"><path d="M-0.09 0.64 C10.69 14.26, 52.98 68.2, 63.68 81.69 M-1.59 -0.07 C9.12 13.21, 51.91 66.62, 62.77 79.88" stroke="#000000" stroke-width="1" fill="none"></path></g></g><g transform="translate(262.4454395605717 50.08931506300871) rotate(0 88 12.5)"><text x="88" y="18" font-family="Virgil, Segoe UI Emoji" font-size="20px" fill="#000000" text-anchor="middle" style="white-space: pre;" direction="ltr">SELECT t1.y t2.x</text></g><g transform="translate(260.317792018741 238.09942452930773) rotate(0 94.5 12.5)"><text x="94.5" y="18" font-family="Virgil, Segoe UI Emoji" font-size="20px" fill="#000000" text-anchor="middle" style="white-space: pre;" direction="ltr">t1 INNER JOIN t2</text></g><g transform="translate(151.94160397743565 419.7498051178933) rotate(0 9.5 12.5)"><text x="9.5" y="18" font-family="Virgil, Segoe UI Emoji" font-size="20px" fill="#000000" text-anchor="middle" style="white-space: pre;" direction="ltr">t1</text></g><g transform="translate(409.7813564876192 421.8145318741814) rotate(0 14 12.5)"><text x="14" y="18" font-family="Virgil, Segoe UI Emoji" font-size="20px" fill="#000000" text-anchor="middle" style="white-space: pre;" direction="ltr">t2</text></g></svg>